<svg width="1091" height="2315" xmlns="http://www.w3.org/2000/svg" xmlns:xlink="http://www.w3.org/1999/xlink" xml:space="preserve" overflow="hidden"><defs><linearGradient x1="824" y1="2399.5" x2="1898" y2="2399.5" gradientUnits="userSpaceOnUse" spreadMethod="reflect" id="fill0"><stop offset="0" stop-color="#FC9109" stop-opacity="1"/><stop offset="0.025" stop-color="#FB9008" stop-opacity="1"/><stop offset="0.05" stop-color="#FB9008" stop-opacity="1"/><stop offset="0.075" stop-color="#FB9008" stop-opacity="1"/><stop offset="0.1" stop-color="#FB9008" stop-opacity="1"/><stop offset="0.125" stop-color="#FB9008" stop-opacity="1"/><stop offset="0.15" stop-color="#FB8F08" stop-opacity="1"/><stop offset="0.175" stop-color="#FA8F08" stop-opacity="1"/><stop offset="0.2" stop-color="#FA8E08" stop-opacity="1"/><stop offset="0.225" stop-color="#FA8E08" stop-opacity="1"/><stop offset="0.25" stop-color="#F98D08" stop-opacity="1"/><stop offset="0.275" stop-color="#F98D08" stop-opacity="1"/><stop offset="0.3" stop-color="#F88C08" stop-opacity="1"/><stop offset="0.325" stop-color="#F88C07" stop-opacity="1"/><stop offset="0.35" stop-color="#F78B07" stop-opacity="1"/><stop offset="0.375" stop-color="#F78A07" stop-opacity="1"/><stop offset="0.4" stop-color="#F68907" stop-opacity="1"/><stop offset="0.425" stop-color="#F58807" stop-opacity="1"/><stop offset="0.45" stop-color="#F58706" stop-opacity="1"/><stop offset="0.475" stop-color="#F48606" stop-opacity="1"/><stop offset="0.5" stop-color="#F38506" stop-opacity="1"/><stop offset="0.525" stop-color="#F28406" stop-opacity="1"/><stop offset="0.55" stop-color="#F18306" stop-opacity="1"/><stop offset="0.575" stop-color="#F18205" stop-opacity="1"/><stop offset="0.6" stop-color="#F08105" stop-opacity="1"/><stop offset="0.625" stop-color="#EF8005" stop-opacity="1"/><stop offset="0.65" stop-color="#EE7E04" stop-opacity="1"/><stop offset="0.675" stop-color="#ED7D04" stop-opacity="1"/><stop offset="0.7" stop-color="#EC7B04" stop-opacity="1"/><stop offset="0.725" stop-color="#EB7A04" stop-opacity="1"/><stop offset="0.75" stop-color="#E97903" stop-opacity="1"/><stop offset="0.775" stop-color="#E87703" stop-opacity="1"/><stop offset="0.8" stop-color="#E77603" stop-opacity="1"/><stop offset="0.825" stop-color="#E67402" stop-opacity="1"/><stop offset="0.85" stop-color="#E57202" stop-opacity="1"/><stop offset="0.875" stop-color="#E37101" stop-opacity="1"/><stop offset="0.9" stop-color="#E26F01" stop-opacity="1"/><stop offset="0.925" stop-color="#E16D01" stop-opacity="1"/><stop offset="0.95" stop-color="#DF6B00" stop-opacity="1"/><stop offset="0.975" stop-color="#DE6900" stop-opacity="1"/><stop offset="1" stop-color="#DD6800" stop-opacity="1"/></linearGradient><linearGradient x1="826" y1="2244" x2="1906" y2="2244" gradientUnits="userSpaceOnUse" spreadMethod="reflect" id="fill1"><stop offset="0" stop-color="#EE7A00" stop-opacity="1"/><stop offset="0.0588235" stop-color="#ED7900" stop-opacity="1"/><stop offset="0.117647" stop-color="#ED7900" stop-opacity="1"/><stop offset="0.176471" stop-color="#ED7900" stop-opacity="1"/><stop offset="0.235294" stop-color="#EC7800" stop-opacity="1"/><stop offset="0.294118" stop-color="#EC7800" stop-opacity="1"/><stop offset="0.352941" stop-color="#EB7700" stop-opacity="1"/><stop offset="0.411765" stop-color="#EA7600" stop-opacity="1"/><stop offset="0.470588" stop-color="#E97500" stop-opacity="1"/><stop offset="0.529412" stop-color="#E87400" stop-opacity="1"/><stop offset="0.588235" stop-color="#E77300" stop-opacity="1"/><stop offset="0.647059" stop-color="#E67200" stop-opacity="1"/><stop offset="0.705882" stop-color="#E57000" stop-opacity="1"/><stop offset="0.764706" stop-color="#E36F00" stop-opacity="1"/><stop offset="0.823529" stop-color="#E26D00" stop-opacity="1"/><stop offset="0.882353" stop-color="#E06B00" stop-opacity="1"/><stop offset="0.941176" stop-color="#DE6900" stop-opacity="1"/><stop offset="1" stop-color="#DD6800" stop-opacity="1"/></linearGradient></defs><g transform="translate(-820 -146)"><g><path d="M1296.63 392.924C1245.89 347.341 1268.57 365.662 1204.3 318.725 1260.67 251.754 1278.54 232.856 1361.97 151L1518.6 318.004C1457.71 368.495 1473.52 354.475 1415.33 403.612 1459.82 441.958 1604.44 593.961 1699 689.135 1674.14 758.561 1605.22 911.847 1554.56 1031.39L1168.79 1032C1129.97 931.936 1077 798.481 1026 688.945L1296.63 392.924Z" fill="#FBAE1C" fill-rule="evenodd" fill-opacity="1"/><path d="M1149.73 1074 1580.04 1074 1691 1197.29 1032 1200 1149.73 1074Z" fill="#FBAE1C" fill-rule="evenodd" fill-opacity="1"/><path d="M1188.57 1238 1519.9 1238C1519.45 1446.04 1628.55 1739.19 1716 1867.52 1688.5 1943.63 1701.57 1906.25 1670.02 1979.65L1047.92 1981C1033.05 1943.62 1020.88 1917.06 1006 1870.23 1166.48 1641.47 1184.97 1369.49 1188.57 1238Z" fill="#FBAE1C" fill-rule="evenodd" fill-opacity="1"/><path d="M1845.17 2307 873.309 2301.58C852.133 2243.3 848.528 2241.94 826 2180.95 914.31 2095.11 914.762 2096.01 1049.03 1980.36L1670.81 1979C1814.08 2100.53 1868.15 2144.81 1906 2180.95 1879.42 2239.68 1877.16 2240.14 1845.17 2307Z" fill="#FBAE1C" fill-rule="evenodd" fill-opacity="1"/><path d="M843.167 2342 1878.83 2342 1898 2361.17 1898 2457 824 2457 824 2361.17Z" fill="url(#fill0)" fill-rule="evenodd"/><path d="M0 119.232 341 0 202.693 343 0 341.854 0 119.232Z" fill="#FC9109" fill-rule="evenodd" fill-opacity="1" transform="matrix(-1 0 0 1 1370 689)"/><path d="M284.582 248.016 182.864 164.789 337.156 0 341 230.851 225.551 619 0 537.75 284.582 248.016Z" fill="#FC9109" fill-rule="evenodd" fill-opacity="1" transform="matrix(-1 0 0 1 1700 154)"/><path d="M1361.79 1075.14 1581.08 1074 1692 1196.59 1361 1197C1361.26 1156.38 1361.53 1115.76 1361.79 1075.14Z" fill="#DD6800" fill-rule="evenodd" fill-opacity="1"/><path d="M1631.22 2180.78C1512.78 2185.73 1095.97 2184.36 982 2180.78 1132.11 2095.01 1180.64 2071.82 1346.92 1980.35L1672 1979C1641.22 2127.97 1643.75 2110.25 1631.22 2180.78Z" fill="#FC9109" fill-rule="evenodd" fill-opacity="1"/><path d="M1628 2181.74C1641.5 2128.62 1657.88 2047.15 1671.29 1978 1814.79 2099.39 1870.09 2145.9 1908 2182L1628 2181.74Z" fill="#DD6800" fill-rule="evenodd" fill-opacity="1"/><path d="M1845.17 2307 873.309 2301.58C852.133 2243.32 848.528 2241.97 826 2181L1906 2181C1879.42 2239.71 1877.16 2240.16 1845.17 2307Z" fill="url(#fill1)" fill-rule="evenodd"/><path d="M1370 808.84 1698 691 1554.87 1031 1370 1031 1370 808.84Z" fill="#DD6800" fill-rule="evenodd" fill-opacity="1"/><path d="M1365 1238.88C1363.69 1347.22 1362.81 1321.99 1360.96 1409 1216.98 1269.4 1332.51 1382.75 1190 1237 1293.07 1239.41 1281.07 1239.26 1365 1238.88Z" fill="#FC9109" fill-rule="evenodd" fill-opacity="1"/><path d="M1006 1869.37C1183.3 1861.53 1300.24 1861.79 1393.48 1865.53 1365.94 1941.53 1418.04 1906.49 1386.44 1979.79L1047.99 1980C1033.09 1942.67 1020.9 1916.14 1006 1869.37Z" fill="#DD6800" fill-rule="evenodd" fill-opacity="1"/><path d="M1.42012 472C-6.44002 366.124 20.8044 86.8631 22.652 0 142.545 194.309 297.518 343.249 385 471.587L1.42012 472Z" fill="#FC9109" fill-rule="evenodd" fill-opacity="1" transform="matrix(-1 0 0 1 1391 1398)"/><path d="M1380.82 1869C1372.95 1762.99 1362.36 1487.97 1364.21 1401 1484.25 1595.55 1569.41 1737.8 1657 1866.29 1553.81 1863.89 1486.65 1867.48 1380.82 1869Z" fill="#EE7A00" fill-rule="evenodd" fill-opacity="1"/><path d="M1365.12 1239.15C1475.53 1239.15 1409.55 1238 1519.96 1238 1519.51 1446.2 1628.57 1739.57 1716 1868 1662.17 1867.42 1705.01 1867.81 1645.98 1867.96L1359 1402.24C1361.37 1313.05 1361.52 1370.73 1365.12 1239.15Z" fill="#DD6800" fill-rule="evenodd" fill-opacity="1"/><path d="M1380.83 1869.6C1451.65 1864.82 1664.74 1862.42 1716 1869.19 1688.52 1945.08 1701.58 1907.81 1670.04 1981L1346 1980.06C1364.34 1925.68 1360.19 1941.41 1380.83 1869.6Z" fill="#BB5202" fill-rule="evenodd" fill-opacity="1"/></g></g></svg>